<svg width="220" height="220" viewBox="0 0 220 220" xmlns="http://www.w3.org/2000/svg" role="img" aria-label="Logo Defensoria Pública de Minas Gerais">
  <defs>
    <linearGradient id="g1" x1="0" y1="0" x2="1" y2="1">
      <stop offset="0" stop-color="#0c6a43"/>
      <stop offset="1" stop-color="#0a5a39"/>
    </linearGradient>
  </defs>
  <circle cx="110" cy="110" r="104" fill="#f0cb39"/>
  <circle cx="110" cy="110" r="90" fill="url(#g1)"/>
  <circle cx="110" cy="110" r="87" fill="none" stroke="#f6df7b" stroke-width="4" opacity="0.8"/>
  <path d="M110 42 L110 178" stroke="#1b1b1b" stroke-width="6"/>
  <path d="M78 82 H142" stroke="#1b1b1b" stroke-width="5"/>
  <path d="M110 82 L85 112 L135 112 Z" fill="#1b1b1b" opacity="0.08"/>
  <path d="M78 82 C72 95 67 104 60 112 C71 120 85 118 92 112 C86 104 82 95 78 82 Z" fill="#0f2a20"/>
  <path d="M142 82 C138 95 134 104 128 112 C135 118 149 120 160 112 C153 104 147 95 142 82 Z" fill="#0f2a20"/>
  <path d="M50 126 C77 95 96 77 110 71 C124 77 143 95 170 126" fill="#f5f5f5" opacity="0.9"/>
  <path d="M95 188 Q110 198 126 188" stroke="#1b1b1b" stroke-width="5" fill="none" stroke-linecap="round"/>
</svg>
