<svg width="512" height="512" viewBox="0 0 512 512" xmlns="http://www.w3.org/2000/svg" role="img" aria-label="Logo Defensoria Pública de Minas Gerais">
  <defs>
    <linearGradient id="gGreen" x1="0" y1="0" x2="1" y2="1">
      <stop offset="0" stop-color="#0b6a45"/>
      <stop offset="1" stop-color="#0a583a"/>
    </linearGradient>
    <linearGradient id="gRibbon" x1="0" y1="0" x2="1" y2="0">
      <stop offset="0" stop-color="#2f8a4c"/>
      <stop offset="0.5" stop-color="#1e6f43"/>
      <stop offset="1" stop-color="#2f8a4c"/>
    </linearGradient>
  </defs>

  <circle cx="256" cy="188" r="150" fill="#f0cc3e"/>
  <circle cx="256" cy="188" r="128" fill="url(#gGreen)"/>
  <ellipse cx="256" cy="188" rx="120" ry="120" fill="none" stroke="#f7de7c" stroke-width="6"/>

  <path d="M256 74 L256 306" stroke="#171717" stroke-width="10"/>
  <path d="M206 150 H306" stroke="#171717" stroke-width="8"/>

  <path d="M138 212 C180 166 214 149 256 141 C298 149 332 166 374 212" fill="#f2f2f2" opacity="0.93"/>

  <path d="M206 150 C198 176 188 196 176 212 C192 225 211 223 224 212 C214 196 209 176 206 150 Z" fill="#102c21"/>
  <path d="M306 150 C303 176 298 196 288 212 C301 223 320 225 336 212 C324 196 314 176 306 150 Z" fill="#102c21"/>

  <path d="M230 292 Q256 318 282 292" stroke="#171717" stroke-width="8" fill="none" stroke-linecap="round"/>

  <path d="M92 300 H420 Q432 300 432 312 V356 Q432 368 420 368 H92 Q80 368 80 356 V312 Q80 300 92 300 Z" fill="url(#gRibbon)"/>
  <path d="M80 312 L32 332 L80 350 Z" fill="#2d7f49"/>
  <path d="M432 312 L480 332 L432 350 Z" fill="#2d7f49"/>

  <text x="256" y="333" text-anchor="middle" fill="#ffffff" font-family="Montserrat, Arial, sans-serif" font-size="22" font-weight="800" letter-spacing="0.5">DEFENSORIA PÚBLICA</text>
  <text x="256" y="360" text-anchor="middle" fill="#eaf2ea" font-family="Montserrat, Arial, sans-serif" font-size="19" font-weight="600">DO ESTADO DE MINAS GERAIS</text>

  <text x="256" y="420" text-anchor="middle" fill="#111111" font-family="Montserrat, Arial, sans-serif" font-size="28" font-style="italic" font-weight="800">IGUALDADE E CIDADANIA PARA TODOS</text>
</svg>
